<svg id="Layer_1" data-name="Layer 1" xmlns="http://www.w3.org/2000/svg" viewBox="0 0 757.84 173.52"><defs><style>.cls-1{fill:#0b6db7;}</style></defs><path class="cls-1" d="M346.53,38.31h8.72l3,12.89h.95c9.29-9.86,19.15-14.79,29.77-14.79,21.62,0,36.79,18.78,36.79,51.39S410.63,139.2,389,139.2c-10.62,0-20.48-4.74-29.77-14.6h-.95v48.92H346.53Zm11.76,72.63c9.86,12.52,18.77,18.78,29.77,18.78,16.31,0,26-14.61,26-41.72s-9.67-41.73-26-41.73c-11,0-19.91,6.07-29.77,18.59Z"/><path class="cls-1" d="M448.31,38.31h11.57V55.57H461c6.83-13.09,15.56-19,28.45-19H490V48h-1.52c-13.84,0-22.94,8-28.63,26.74v62.77H448.31Z"/><rect class="cls-1" x="507.49" y="38.31" width="11.57" height="99.18"/><path class="cls-1" d="M578.74,129.9c12.33,0,20.48-7.77,20.48-18.2,0-12-9.29-14.6-25.6-20.67-20.1-7.4-30.53-13.09-30.53-28.26s12.32-26.36,32-26.36c12.89,0,24.27,6.26,33,18.21l-8.35,6.07c-7.58-10-15.74-14.8-26.74-14.8-10.81,0-17.82,6.64-17.82,16.31,0,10.62,9.67,13.09,26.17,19.35,19.72,7.39,29.77,13.46,29.77,29.2,0,16.5-13.27,28.45-33.76,28.45-15.55,0-27.49-6.26-37.36-19.53l8.73-7C557.31,124,567.17,129.9,578.74,129.9Z"/><path class="cls-1" d="M632.49,38.31H643.3V53.67h.76c10.43-11.38,21.43-17.07,31.86-17.07,11.19,0,19.15,5.69,23.7,17.07H701c10.81-11.38,21.24-17.07,31.86-17.07q25,0,25,31.86v69H746.66V72.63c0-17.44-3-25.79-17.07-25.79-9.11,0-19,6.07-28.64,18.4v72.25H689.57V72.63c0-17.44-3-25.79-17.06-25.79-9.11,0-18.78,6.07-28.64,18.4v72.25H632.49Z"/><path class="cls-1" d="M19,0V48.93A29.17,29.17,0,0,1,43.24,36.6c23.89,0,39.82,19,39.82,50.64,0,33-15,52-39.63,52-11,0-19.72-4.17-26.55-13.09L14,137.49H0c1-9.86,1.14-19.15,1.14-27.88V0ZM40.58,124.22c15.17,0,24.09-12.33,24.09-35.66,0-24.46-8.72-37-24.65-37-7.78,0-14.61,4-21.06,12v48.36C25.41,120,32.43,124.22,40.58,124.22Z"/><path class="cls-1" d="M121.85,0V137.49H104V0Z"/><path class="cls-1" d="M167.93,38.12v66.75c0,13.09,4.17,19.16,14.6,19.16,7.77,0,16.12-4.36,24.65-13.09V38.12h18v99.37H208.51V124c-11,9.86-20.67,15-31.86,15-16.88,0-26.74-10.43-26.74-29.21V38.12Z"/><path class="cls-1" d="M263.6,91v1.9c0,20.1,9.1,31.29,24.84,31.29,10.43,0,18.4-5.12,24.09-15.56l13.27,8.16c-8.15,14.79-21.24,22.57-38.31,22.57-27.12,0-42.1-17.64-42.1-50.45,0-33.94,15.18-52.53,41-52.53,23.7,0,38.87,18,38.87,49.5,0,1.71-.19,3.41-.19,5.12Zm22.19-40.21c-13.09,0-21.24,9.3-22,26.36h43C306.46,60.31,298.3,50.82,285.79,50.82Z"/><path class="cls-1" d="M745.1.1a12.72,12.72,0,1,1-12.72,12.72A12.74,12.74,0,0,1,745.1.1Zm0,23.54c5.85,0,10.25-4.72,10.25-10.82S751,2,745.14,2s-10.33,4.72-10.33,10.82S739.22,23.64,745.14,23.64Zm-4.9-18.29H746c3.41,0,5.11,1.37,5.11,4.19a3.81,3.81,0,0,1-3.85,4.13l4.23,6.58h-2.57l-4.16-6.58h-2v6.58h-2.43Zm2.43,6.41h2.89c1.87,0,3.07-.38,3.07-2.32,0-1.69-1.52-2.19-3.07-2.19h-2.89Z"/></svg>